<svg xmlns="http://www.w3.org/2000/svg" xmlns:xlink="http://www.w3.org/1999/xlink" width="900" zoomAndPan="magnify" viewBox="0 0 675 128.249994" height="171" preserveAspectRatio="xMidYMid meet" version="1.0"><defs><g/><clipPath id="73802a4c74"><path d="M 263.835938 0 L 371 0 L 371 127.503906 L 263.835938 127.503906 Z M 263.835938 0 " clip-rule="nonzero"/></clipPath><clipPath id="6923871917"><path d="M 272 0 L 411.472656 0 L 411.472656 127.503906 L 272 127.503906 Z M 272 0 " clip-rule="nonzero"/></clipPath></defs><g clip-path="url(#73802a4c74)"><path fill="#ffffff" d="M 354.710938 0 L 334.566406 34.425781 L 333.585938 31.402344 L 315.859375 0 L 285.28125 0 L 306.683594 37.566406 L 301.816406 37.566406 L 301.816406 50.132812 L 314.40625 50.132812 L 314.40625 50.097656 L 322.714844 50.097656 L 322.714844 61.757812 L 305.867188 61.757812 L 305.867188 74.320312 L 314.40625 74.320312 L 314.40625 86.882812 L 303.191406 86.882812 L 280.109375 127.519531 L 296.253906 127.519531 L 370.859375 0 Z M 327.769531 37.59375 L 315.179688 37.59375 L 315.179688 25.03125 L 327.769531 25.03125 Z M 298.34375 75.171875 L 298.34375 87.734375 L 285.757812 87.734375 L 285.757812 75.171875 Z M 263.917969 39.605469 L 276.507812 39.605469 L 276.507812 52.167969 L 263.917969 52.167969 Z M 263.917969 39.605469 " fill-opacity="1" fill-rule="nonzero"/></g><g clip-path="url(#6923871917)"><path fill="#bb86fc" d="M 411.398438 127.519531 L 380.226562 127.519531 L 356.148438 85.503906 L 355.894531 84.347656 L 330.589844 127.519531 L 316.300781 127.519531 L 390.90625 0 L 405.339844 0 L 372.398438 59.113281 Z M 295.390625 27.503906 L 282.804688 27.503906 L 282.804688 40.066406 L 295.394531 40.066406 L 295.394531 27.503906 Z M 284.96875 62.820312 L 272.382812 62.820312 L 272.382812 75.382812 L 284.972656 75.382812 L 284.972656 62.820312 Z M 299.6875 50.261719 L 287.097656 50.261719 L 287.097656 62.824219 L 299.6875 62.824219 Z M 299.6875 50.261719 " fill-opacity="1" fill-rule="nonzero"/></g><g fill="#bb86fc" fill-opacity="1"><g transform="translate(3.326005, 89.103915)"><g><path d="M 2.46875 -26.390625 C 2.46875 -31.585938 3.59375 -36.222656 5.84375 -40.296875 C 8.09375 -44.367188 11.226562 -47.539062 15.25 -49.8125 C 19.28125 -52.09375 23.84375 -53.234375 28.9375 -53.234375 C 35.1875 -53.234375 40.535156 -51.582031 44.984375 -48.28125 C 49.429688 -44.976562 52.40625 -40.476562 53.90625 -34.78125 L 39.8125 -34.78125 C 38.757812 -36.976562 37.269531 -38.648438 35.34375 -39.796875 C 33.425781 -40.953125 31.238281 -41.53125 28.78125 -41.53125 C 24.832031 -41.53125 21.632812 -40.15625 19.1875 -37.40625 C 16.738281 -34.65625 15.515625 -30.984375 15.515625 -26.390625 C 15.515625 -21.785156 16.738281 -18.109375 19.1875 -15.359375 C 21.632812 -12.617188 24.832031 -11.25 28.78125 -11.25 C 31.238281 -11.25 33.425781 -11.820312 35.34375 -12.96875 C 37.269531 -14.113281 38.757812 -15.789062 39.8125 -18 L 53.90625 -18 C 52.40625 -12.300781 49.429688 -7.8125 44.984375 -4.53125 C 40.535156 -1.257812 35.1875 0.375 28.9375 0.375 C 23.84375 0.375 19.28125 -0.757812 15.25 -3.03125 C 11.226562 -5.3125 8.09375 -8.472656 5.84375 -12.515625 C 3.59375 -16.566406 2.46875 -21.191406 2.46875 -26.390625 Z M 2.46875 -26.390625 "/></g></g></g><g fill="#bb86fc" fill-opacity="1"><g transform="translate(60.445623, 89.103915)"><g><path d="M 17.46875 -9.890625 L 34.265625 -9.890625 L 34.265625 0 L 4.640625 0 L 4.640625 -52.625 L 17.46875 -52.625 Z M 17.46875 -9.890625 "/></g></g></g><g fill="#bb86fc" fill-opacity="1"><g transform="translate(96.201604, 89.103915)"><g><path d="M 29.53125 0.53125 C 24.582031 0.53125 20.046875 -0.617188 15.921875 -2.921875 C 11.804688 -5.222656 8.535156 -8.4375 6.109375 -12.5625 C 3.679688 -16.6875 2.46875 -21.320312 2.46875 -26.46875 C 2.46875 -31.613281 3.679688 -36.234375 6.109375 -40.328125 C 8.535156 -44.429688 11.804688 -47.628906 15.921875 -49.921875 C 20.046875 -52.222656 24.582031 -53.375 29.53125 -53.375 C 34.476562 -53.375 39.015625 -52.222656 43.140625 -49.921875 C 47.265625 -47.628906 50.515625 -44.429688 52.890625 -40.328125 C 55.265625 -36.234375 56.453125 -31.613281 56.453125 -26.46875 C 56.453125 -21.320312 55.25 -16.6875 52.84375 -12.5625 C 50.445312 -8.4375 47.195312 -5.222656 43.09375 -2.921875 C 39 -0.617188 34.476562 0.53125 29.53125 0.53125 Z M 29.53125 -11.171875 C 33.726562 -11.171875 37.085938 -12.566406 39.609375 -15.359375 C 42.140625 -18.160156 43.40625 -21.863281 43.40625 -26.46875 C 43.40625 -31.113281 42.140625 -34.820312 39.609375 -37.59375 C 37.085938 -40.363281 33.726562 -41.75 29.53125 -41.75 C 25.289062 -41.75 21.90625 -40.375 19.375 -37.625 C 16.851562 -34.882812 15.59375 -31.164062 15.59375 -26.46875 C 15.59375 -21.8125 16.851562 -18.097656 19.375 -15.328125 C 21.90625 -12.554688 25.289062 -11.171875 29.53125 -11.171875 Z M 29.53125 -11.171875 "/></g></g></g><g fill="#bb86fc" fill-opacity="1"><g transform="translate(155.120275, 89.103915)"><g><path d="M 17.25 -52.625 L 17.25 -21.140625 C 17.25 -17.992188 18.019531 -15.566406 19.5625 -13.859375 C 21.113281 -12.160156 23.390625 -11.3125 26.390625 -11.3125 C 29.390625 -11.3125 31.6875 -12.160156 33.28125 -13.859375 C 34.882812 -15.566406 35.6875 -17.992188 35.6875 -21.140625 L 35.6875 -52.625 L 48.5 -52.625 L 48.5 -21.21875 C 48.5 -16.519531 47.5 -12.546875 45.5 -9.296875 C 43.5 -6.046875 40.8125 -3.59375 37.4375 -1.9375 C 34.070312 -0.289062 30.316406 0.53125 26.171875 0.53125 C 22.015625 0.53125 18.300781 -0.28125 15.03125 -1.90625 C 11.757812 -3.53125 9.171875 -5.976562 7.265625 -9.25 C 5.367188 -12.53125 4.421875 -16.519531 4.421875 -21.21875 L 4.421875 -52.625 Z M 17.25 -52.625 "/></g></g></g><g fill="#bb86fc" fill-opacity="1"><g transform="translate(207.967176, 89.103915)"><g><path d="M 24.359375 -52.625 C 29.910156 -52.625 34.757812 -51.523438 38.90625 -49.328125 C 43.050781 -47.128906 46.257812 -44.039062 48.53125 -40.0625 C 50.8125 -36.09375 51.953125 -31.507812 51.953125 -26.3125 C 51.953125 -21.164062 50.8125 -16.59375 48.53125 -12.59375 C 46.257812 -8.59375 43.035156 -5.492188 38.859375 -3.296875 C 34.691406 -1.097656 29.859375 0 24.359375 0 L 4.640625 0 L 4.640625 -52.625 Z M 23.546875 -11.09375 C 28.390625 -11.09375 32.160156 -12.414062 34.859375 -15.0625 C 37.554688 -17.71875 38.90625 -21.46875 38.90625 -26.3125 C 38.90625 -31.164062 37.554688 -34.941406 34.859375 -37.640625 C 32.160156 -40.335938 28.390625 -41.6875 23.546875 -41.6875 L 17.46875 -41.6875 L 17.46875 -11.09375 Z M 23.546875 -11.09375 "/></g></g></g><g fill="#ffffff" fill-opacity="1"><g transform="translate(412.421465, 89.12092)"><g><path d="M 31.484375 0 L 20.546875 -19.859375 L 17.46875 -19.859375 L 17.46875 0 L 4.640625 0 L 4.640625 -52.625 L 26.171875 -52.625 C 30.316406 -52.625 33.847656 -51.898438 36.765625 -50.453125 C 39.691406 -49.003906 41.878906 -47.015625 43.328125 -44.484375 C 44.773438 -41.960938 45.5 -39.15625 45.5 -36.0625 C 45.5 -32.5625 44.507812 -29.4375 42.53125 -26.6875 C 40.5625 -23.9375 37.65625 -21.988281 33.8125 -20.84375 L 45.953125 0 Z M 17.46875 -28.9375 L 25.421875 -28.9375 C 27.765625 -28.9375 29.523438 -29.507812 30.703125 -30.65625 C 31.878906 -31.8125 32.46875 -33.4375 32.46875 -35.53125 C 32.46875 -37.53125 31.878906 -39.101562 30.703125 -40.25 C 29.523438 -41.40625 27.765625 -41.984375 25.421875 -41.984375 L 17.46875 -41.984375 Z M 17.46875 -28.9375 "/></g></g></g><g fill="#ffffff" fill-opacity="1"><g transform="translate(461.295472, 89.12092)"><g><path d="M 17.46875 -42.359375 L 17.46875 -31.71875 L 34.640625 -31.71875 L 34.640625 -21.8125 L 17.46875 -21.8125 L 17.46875 -10.265625 L 36.890625 -10.265625 L 36.890625 0 L 4.640625 0 L 4.640625 -52.625 L 36.890625 -52.625 L 36.890625 -42.359375 Z M 17.46875 -42.359375 "/></g></g></g><g fill="#ffffff" fill-opacity="1"><g transform="translate(501.848902, 89.12092)"><g><path d="M 42.5 -52.625 L 42.5 -42.359375 L 28.5625 -42.359375 L 28.5625 0 L 15.75 0 L 15.75 -42.359375 L 1.796875 -42.359375 L 1.796875 -52.625 Z M 42.5 -52.625 "/></g></g></g><g fill="#ffffff" fill-opacity="1"><g transform="translate(546.150338, 89.12092)"><g><path d="M 31.484375 0 L 20.546875 -19.859375 L 17.46875 -19.859375 L 17.46875 0 L 4.640625 0 L 4.640625 -52.625 L 26.171875 -52.625 C 30.316406 -52.625 33.847656 -51.898438 36.765625 -50.453125 C 39.691406 -49.003906 41.878906 -47.015625 43.328125 -44.484375 C 44.773438 -41.960938 45.5 -39.15625 45.5 -36.0625 C 45.5 -32.5625 44.507812 -29.4375 42.53125 -26.6875 C 40.5625 -23.9375 37.65625 -21.988281 33.8125 -20.84375 L 45.953125 0 Z M 17.46875 -28.9375 L 25.421875 -28.9375 C 27.765625 -28.9375 29.523438 -29.507812 30.703125 -30.65625 C 31.878906 -31.8125 32.46875 -33.4375 32.46875 -35.53125 C 32.46875 -37.53125 31.878906 -39.101562 30.703125 -40.25 C 29.523438 -41.40625 27.765625 -41.984375 25.421875 -41.984375 L 17.46875 -41.984375 Z M 17.46875 -28.9375 "/></g></g></g><g fill="#ffffff" fill-opacity="1"><g transform="translate(595.024345, 89.12092)"><g><path d="M 29.53125 0.53125 C 24.582031 0.53125 20.046875 -0.617188 15.921875 -2.921875 C 11.804688 -5.222656 8.535156 -8.4375 6.109375 -12.5625 C 3.679688 -16.6875 2.46875 -21.320312 2.46875 -26.46875 C 2.46875 -31.613281 3.679688 -36.234375 6.109375 -40.328125 C 8.535156 -44.429688 11.804688 -47.628906 15.921875 -49.921875 C 20.046875 -52.222656 24.582031 -53.375 29.53125 -53.375 C 34.476562 -53.375 39.015625 -52.222656 43.140625 -49.921875 C 47.265625 -47.628906 50.515625 -44.429688 52.890625 -40.328125 C 55.265625 -36.234375 56.453125 -31.613281 56.453125 -26.46875 C 56.453125 -21.320312 55.25 -16.6875 52.84375 -12.5625 C 50.445312 -8.4375 47.195312 -5.222656 43.09375 -2.921875 C 39 -0.617188 34.476562 0.53125 29.53125 0.53125 Z M 29.53125 -11.171875 C 33.726562 -11.171875 37.085938 -12.566406 39.609375 -15.359375 C 42.140625 -18.160156 43.40625 -21.863281 43.40625 -26.46875 C 43.40625 -31.113281 42.140625 -34.820312 39.609375 -37.59375 C 37.085938 -40.363281 33.726562 -41.75 29.53125 -41.75 C 25.289062 -41.75 21.90625 -40.375 19.375 -37.625 C 16.851562 -34.882812 15.59375 -31.164062 15.59375 -26.46875 C 15.59375 -21.8125 16.851562 -18.097656 19.375 -15.328125 C 21.90625 -12.554688 25.289062 -11.171875 29.53125 -11.171875 Z M 29.53125 -11.171875 "/></g></g></g></svg>