<svg xmlns="http://www.w3.org/2000/svg" xmlns:xlink="http://www.w3.org/1999/xlink" width="600" zoomAndPan="magnify" viewBox="0 0 450 85.499998" height="114" preserveAspectRatio="xMidYMid meet" version="1.0"><defs><g/><clipPath id="9ad4a589f3"><path d="M 109.230469 4.300781 L 174 4.300781 L 174 80.355469 L 109.230469 80.355469 Z M 109.230469 4.300781 " clip-rule="nonzero"/></clipPath><clipPath id="5beefca88c"><path d="M 114 4.300781 L 197.21875 4.300781 L 197.21875 80.355469 L 114 80.355469 Z M 114 4.300781 " clip-rule="nonzero"/></clipPath></defs><g fill="#bb86fc" fill-opacity="1"><g transform="translate(202.404683, 65.107693)"><g><path d="M 43.675781 -13.507812 C 36.957031 -9.667969 32.019531 -8.089844 26.671875 -8.089844 C 18.445312 -8.089844 13.300781 -12.890625 13.300781 -20.570312 C 13.300781 -27.839844 18.238281 -38.738281 33.253906 -38.738281 C 37.367188 -38.738281 41.003906 -38.121094 44.566406 -37.027344 L 46.214844 -45.664062 C 41.550781 -46.832031 37.644531 -47.449219 33.527344 -47.449219 C 15.496094 -47.449219 3.015625 -36.476562 3.015625 -20.777344 C 3.015625 -8.023438 12.203125 0.617188 25.78125 0.617188 C 31.335938 0.617188 36.476562 -0.546875 42.238281 -3.085938 Z M 43.675781 -13.507812 "/></g></g></g><g fill="#bb86fc" fill-opacity="1"><g transform="translate(248.618369, 65.107693)"><g><path d="M 34.214844 0 L 35.3125 -7.816406 L 14.054688 -7.816406 L 19.542969 -46.761719 L 9.597656 -46.761719 L 3.015625 0 Z M 34.214844 0 "/></g></g></g><g fill="#bb86fc" fill-opacity="1"><g transform="translate(285.301336, 65.107693)"><g><path d="M 53.550781 -26.054688 C 53.550781 -38.601562 44.15625 -47.449219 30.511719 -47.449219 C 14.671875 -47.449219 3.015625 -36.273438 3.015625 -21.117188 C 3.015625 -8.296875 13.027344 0.617188 26.605469 0.617188 C 42.101562 0.617188 53.550781 -9.941406 53.550781 -26.054688 Z M 43.265625 -25.371094 C 43.265625 -15.703125 35.929688 -8.089844 26.671875 -8.089844 C 18.789062 -8.089844 13.300781 -13.574219 13.300781 -21.597656 C 13.300781 -30.992188 20.777344 -38.738281 29.828125 -38.738281 C 37.644531 -38.738281 43.265625 -33.117188 43.265625 -25.371094 Z M 43.265625 -25.371094 "/></g></g></g><g fill="#bb86fc" fill-opacity="1"><g transform="translate(339.948668, 65.107693)"><g><path d="M 18.71875 -46.761719 L 8.777344 -46.761719 L 4.9375 -20.160156 C 3.222656 -8.363281 9.324219 0.617188 25.371094 0.617188 C 34.214844 0.617188 44.773438 -2.398438 46.898438 -17.621094 L 51.011719 -46.761719 L 41.070312 -46.761719 L 37.09375 -18.445312 C 35.996094 -10.628906 30.648438 -8.089844 25.371094 -8.089844 C 21.253906 -8.089844 13.4375 -9.738281 14.949219 -20.296875 Z M 18.71875 -46.761719 "/></g></g></g><g fill="#bb86fc" fill-opacity="1"><g transform="translate(391.373387, 65.107693)"><g><path d="M 9.53125 -46.761719 L 3.015625 0 L 27.152344 0 C 39.632812 0 49.230469 -10.078125 49.230469 -24 C 49.230469 -34.144531 43.746094 -46.761719 25.09375 -46.761719 Z M 18.375 -38.945312 L 23.175781 -38.945312 C 33.460938 -38.945312 38.945312 -32.363281 38.945312 -24.136719 C 38.945312 -16.042969 34.421875 -7.816406 23.382812 -7.816406 L 14.054688 -7.816406 Z M 18.375 -38.945312 "/></g></g></g><g clip-path="url(#9ad4a589f3)"><path fill="#bb86fc" d="M 163.386719 4.300781 L 151.386719 24.835938 L 150.800781 23.03125 L 140.234375 4.300781 L 122.015625 4.300781 L 134.769531 26.707031 L 131.867188 26.707031 L 131.867188 34.203125 L 139.371094 34.203125 L 139.371094 34.183594 L 144.324219 34.183594 L 144.324219 41.136719 L 134.285156 41.136719 L 134.285156 48.628906 L 139.371094 48.628906 L 139.371094 56.125 L 132.6875 56.125 L 118.933594 80.363281 L 128.554688 80.363281 L 173.011719 4.300781 Z M 147.335938 26.722656 L 139.832031 26.722656 L 139.832031 19.230469 L 147.335938 19.230469 Z M 129.800781 49.136719 L 129.800781 56.632812 L 122.296875 56.632812 L 122.296875 49.136719 Z M 109.285156 27.921875 L 116.789062 27.921875 L 116.789062 35.417969 L 109.285156 35.417969 Z M 109.285156 27.921875 " fill-opacity="1" fill-rule="nonzero"/></g><g clip-path="url(#5beefca88c)"><path fill="#ffffff" d="M 197.167969 80.363281 L 178.59375 80.363281 L 164.242188 55.300781 L 164.09375 54.613281 L 149.015625 80.363281 L 140.5 80.363281 L 184.957031 4.300781 L 193.558594 4.300781 L 173.925781 39.5625 Z M 128.039062 20.703125 L 120.539062 20.703125 L 120.539062 28.199219 L 128.039062 28.199219 Z M 121.832031 41.773438 L 114.332031 41.773438 L 114.332031 49.265625 L 121.832031 49.265625 Z M 130.601562 34.28125 L 123.097656 34.28125 L 123.097656 41.773438 L 130.601562 41.773438 Z M 130.601562 34.28125 " fill-opacity="1" fill-rule="nonzero"/></g><g fill="#ffffff" fill-opacity="1"><g transform="translate(9.808436, 65.489004)"><g><path d="M 27.78125 -17.21875 L 36.355469 -17.21875 L 35.191406 -8.917969 C 32.445312 -8.230469 30.730469 -8.09375 28.195312 -8.09375 C 19.824219 -8.09375 13.308594 -12.210938 13.308594 -20.855469 C 13.308594 -31.554688 22.980469 -38.757812 36.699219 -38.757812 C 40.953125 -38.757812 44.519531 -38.277344 49.117188 -37.042969 L 50.28125 -45.6875 C 46.578125 -46.785156 41.84375 -47.46875 36.699219 -47.46875 C 12.140625 -47.46875 3.019531 -32.308594 3.019531 -20.511719 C 3.019531 -10.289062 9.945312 0.617188 29.429688 0.617188 C 34.4375 0.617188 41.296875 0 43.972656 -0.753906 L 47.332031 -24.628906 L 28.8125 -24.628906 Z M 27.78125 -17.21875 "/></g></g><g transform="translate(60.777371, 65.489004)"><g><path d="M 25.929688 0 C 37.316406 0 41.984375 -7.820312 41.984375 -13.582031 C 41.984375 -18.863281 38.691406 -23.460938 33.269531 -25.039062 C 37.730469 -27.300781 39.992188 -30.9375 39.992188 -35.464844 C 39.992188 -40.886719 36.5625 -46.785156 24.488281 -46.785156 L 9.605469 -46.785156 L 3.019531 0 Z M 18.523438 -38.964844 L 23.734375 -38.964844 C 28.261719 -38.964844 30.390625 -37.113281 30.390625 -34.230469 C 30.390625 -31.28125 28.46875 -28.675781 23.667969 -28.675781 L 16.945312 -28.675781 Z M 15.914062 -20.855469 L 22.980469 -20.855469 C 27.78125 -20.855469 31.691406 -19 31.691406 -14.679688 C 31.691406 -11.113281 29.566406 -7.820312 23.390625 -7.820312 L 13.925781 -7.820312 Z M 15.914062 -20.855469 "/></g></g></g></svg>